<svg width="36" height="36" viewBox="0 0 36 36" fill="none" xmlns="http://www.w3.org/2000/svg">
<rect x="0.5" y="0.5" width="35" height="35" rx="17.5" fill="white"/>
<rect x="0.5" y="0.5" width="35" height="35" rx="17.5" stroke="#E9EAEC"/>
<path d="M23.8335 11.83C23.9228 11.83 24.0086 11.8654 24.0718 11.9286C24.1349 11.9917 24.1704 12.0776 24.1704 12.1669C24.1704 12.2559 24.1346 12.3411 24.0718 12.4042L18.8218 17.6464L18.4673 17.9999L18.8218 18.3534L24.0718 23.5956L24.0728 23.5966C24.104 23.6275 24.1291 23.6644 24.146 23.705C24.1629 23.7454 24.1713 23.789 24.1714 23.8329C24.1714 23.8769 24.1629 23.9212 24.146 23.9618C24.1291 24.0023 24.1039 24.0393 24.0728 24.0702L24.0698 24.0731C24.0389 24.1043 24.0019 24.1295 23.9614 24.1464C23.9209 24.1632 23.8774 24.1717 23.8335 24.1718C23.7896 24.1718 23.7461 24.1632 23.7056 24.1464C23.6651 24.1295 23.6281 24.1042 23.5972 24.0731L23.5952 24.0721L18.354 18.8221L18.0005 18.4677L17.646 18.8221L12.4048 24.0721L12.4038 24.0731C12.3729 24.1043 12.3359 24.1294 12.2954 24.1464C12.2548 24.1633 12.2105 24.1718 12.1665 24.1718C12.1226 24.1717 12.0791 24.1632 12.0386 24.1464C11.998 24.1295 11.9611 24.1043 11.9302 24.0731L11.9272 24.0702L11.8853 24.0194C11.8731 24.0013 11.8624 23.982 11.854 23.9618C11.8371 23.9212 11.8286 23.8769 11.8286 23.8329C11.8287 23.789 11.8371 23.7454 11.854 23.705C11.8709 23.6644 11.896 23.6275 11.9272 23.5966L11.9282 23.5956L17.1782 18.3534L17.5327 17.9999L17.1782 17.6464L11.9282 12.4042H11.9272C11.8648 12.3412 11.8296 12.2556 11.8296 12.1669C11.8296 12.0777 11.8652 11.9917 11.9282 11.9286C11.9913 11.8655 12.0773 11.83 12.1665 11.83C12.2336 11.83 12.299 11.8498 12.354 11.8866L12.4048 11.9286L17.646 17.1786L18.0005 17.5331L18.354 17.1786L23.5952 11.9286C23.6584 11.8654 23.7442 11.83 23.8335 11.83Z" fill="#0E131A" stroke="#0E131A"/>
</svg>
