<svg width="20" height="20" viewBox="0 0 20 20" fill="none" xmlns="http://www.w3.org/2000/svg">
<path d="M9.73998 12.859C9.48134 12.9105 9.24384 13.0378 9.05737 13.2242C8.87097 13.4107 8.74357 13.6483 8.69213 13.9069C8.64081 14.1653 8.66756 14.433 8.7683 14.6764C8.86922 14.92 9.04025 15.1285 9.25951 15.275C9.47869 15.4215 9.73616 15.4996 9.99975 15.4996C10.3534 15.4996 10.6931 15.3591 10.9431 15.109C11.1929 14.859 11.3337 14.5201 11.3337 14.1666C11.3337 13.9029 11.2547 13.6447 11.1081 13.4254C10.9617 13.2065 10.7538 13.036 10.5105 12.9352C10.2669 12.8343 9.9986 12.8076 9.73998 12.859ZM15.573 7.85901C15.3144 7.91049 15.0768 8.03783 14.8904 8.22424C14.7041 8.41067 14.5766 8.64835 14.5251 8.90686C14.4738 9.1652 14.5006 9.43302 14.6013 9.67639C14.7022 9.91997 14.8733 10.1285 15.0925 10.275C15.3118 10.4215 15.57 10.4996 15.8337 10.4996C16.1872 10.4995 16.5262 10.359 16.7761 10.109C17.026 9.85898 17.1667 9.52015 17.1667 9.16663C17.1667 8.90292 17.0886 8.64468 16.9421 8.42542C16.7956 8.20628 16.587 8.03606 16.3435 7.93518C16.0999 7.83426 15.8316 7.80756 15.573 7.85901ZM3.90697 6.19202C3.64833 6.24346 3.40985 6.37078 3.22338 6.55725C3.03707 6.74368 2.91054 6.98136 2.85912 7.23987C2.80768 7.49851 2.83438 7.76674 2.9353 8.01038C3.03622 8.25385 3.20639 8.46257 3.42553 8.60901C3.64479 8.75552 3.90303 8.83362 4.16674 8.83362C4.5202 8.8336 4.85912 8.69284 5.10912 8.44299C5.35917 8.19294 5.49975 7.85326 5.49975 7.49963C5.49968 7.23607 5.42156 6.97856 5.27514 6.7594C5.12863 6.54013 4.92014 6.3691 4.67651 6.26819C4.4331 6.16744 4.16536 6.14071 3.90697 6.19202ZM9.66674 16.1666L9.33764 16.0465C8.95154 15.9064 8.61733 15.6504 8.38158 15.3141C8.14602 14.9778 8.01928 14.5772 8.01928 14.1666C8.01928 13.756 8.14602 13.3554 8.38158 13.0192C8.61733 12.6828 8.95154 12.4269 9.33764 12.2867L9.66674 12.1666V2.49963C9.66683 2.41135 9.70196 2.32672 9.7644 2.26428C9.82685 2.20185 9.91145 2.16669 9.99975 2.16663C10.0882 2.16663 10.1736 2.20177 10.2361 2.26428C10.2984 2.3267 10.3336 2.41144 10.3337 2.49963V12.1666L10.6628 12.2867C11.0489 12.4269 11.3822 12.6828 11.6179 13.0192C11.8536 13.3555 11.9802 13.7559 11.9802 14.1666C11.9802 14.5773 11.8536 14.9778 11.6179 15.3141C11.3822 15.6504 11.0489 15.9064 10.6628 16.0465L10.3337 16.1666V17.4996C10.3337 17.588 10.2986 17.6735 10.2361 17.736C10.1736 17.7985 10.0882 17.8336 9.99975 17.8336C9.91153 17.8336 9.82683 17.7983 9.7644 17.736C9.70188 17.6734 9.66674 17.588 9.66674 17.4996V16.1666ZM15.4997 11.1666L15.1706 11.0465C14.7845 10.9064 14.4513 10.6504 14.2156 10.3141C13.9799 9.97775 13.8533 9.57734 13.8533 9.16663C13.8533 8.75592 13.9799 8.3555 14.2156 8.01917C14.4513 7.68281 14.7845 7.42688 15.1706 7.28674L15.4997 7.16663V2.49963C15.4998 2.41141 15.535 2.32671 15.5974 2.26428C15.6599 2.20177 15.7453 2.16663 15.8337 2.16663C15.922 2.16673 16.0067 2.20187 16.0691 2.26428C16.1315 2.32671 16.1667 2.41136 16.1667 2.49963V7.16663L16.4958 7.28674C16.8819 7.42688 17.2162 7.68281 17.4519 8.01917C17.6874 8.35543 17.8142 8.75607 17.8142 9.16663C17.8142 9.57718 17.6874 9.97782 17.4519 10.3141C17.2162 10.6504 16.8819 10.9064 16.4958 11.0465L16.1667 11.1666V17.4996C16.1667 17.588 16.1316 17.6734 16.0691 17.736C16.0067 17.7983 15.9219 17.8335 15.8337 17.8336C15.7453 17.8336 15.6599 17.7985 15.5974 17.736C15.5349 17.6734 15.4997 17.588 15.4997 17.4996V11.1666ZM3.83373 9.49963L3.50365 9.37952C3.11779 9.23938 2.78424 8.98422 2.54858 8.64807C2.31283 8.31171 2.18627 7.91038 2.18627 7.49963C2.18634 7.08901 2.3129 6.68844 2.54858 6.35217C2.78429 6.01586 3.11763 5.7599 3.50365 5.61975L3.83373 5.50061V2.49963C3.83382 2.41135 3.86895 2.32672 3.93139 2.26428C3.99388 2.20189 4.07843 2.16663 4.16674 2.16663C4.25506 2.16664 4.33961 2.20187 4.40209 2.26428C4.46453 2.32672 4.49966 2.41135 4.49975 2.49963V5.50061L4.82983 5.61975C5.2158 5.75991 5.54922 6.0159 5.7849 6.35217C6.02055 6.68842 6.14714 7.08904 6.14721 7.49963C6.14721 7.91038 6.02065 8.31171 5.7849 8.64807C5.54927 8.98422 5.21567 9.23936 4.82983 9.37952L4.49975 9.49963V17.4996C4.49975 17.588 4.4646 17.6734 4.40209 17.736C4.33962 17.7983 4.25498 17.8336 4.16674 17.8336C4.0785 17.8336 3.99387 17.7982 3.93139 17.736C3.86888 17.6734 3.83373 17.588 3.83373 17.4996V9.49963Z" fill="black" stroke="#334155"/>
</svg>
