<svg width="16" height="16" viewBox="0 0 16 16" fill="none" xmlns="http://www.w3.org/2000/svg">
<path d="M15.0001 0.49585C15.1337 0.495866 15.262 0.548827 15.3565 0.643311C15.451 0.737803 15.5039 0.86613 15.504 0.999756C15.504 1.10022 15.474 1.19772 15.419 1.28003L15.3565 1.3562L9.0567 7.64624L8.70221 7.99976L9.0567 8.35425L15.3565 14.6433L15.3575 14.6453C15.4042 14.6916 15.4415 14.7466 15.4669 14.8074C15.4922 14.8682 15.5059 14.9338 15.5059 14.9998C15.5059 15.0658 15.4922 15.1312 15.4669 15.1921C15.4415 15.253 15.4043 15.3088 15.3575 15.3552L15.3546 15.3582C15.3082 15.4048 15.2532 15.4422 15.1924 15.4675C15.1315 15.4929 15.066 15.5056 15.0001 15.5056C14.9341 15.5056 14.8686 15.4929 14.8077 15.4675C14.7468 15.4421 14.6911 15.405 14.6446 15.3582L14.6436 15.3562L8.35358 9.0564L8.00006 8.7019L7.64655 9.0564L1.35651 15.3562L1.35455 15.3582C1.30816 15.4048 1.25319 15.4422 1.19244 15.4675C1.13154 15.4929 1.06605 15.5056 1.00006 15.5056C0.934073 15.5056 0.868589 15.4929 0.807678 15.4675C0.746752 15.4421 0.691077 15.405 0.644592 15.3582L0.641663 15.3552L0.579163 15.2791C0.560844 15.2518 0.544973 15.2226 0.532288 15.1921C0.50696 15.1313 0.494202 15.0657 0.494202 14.9998C0.494226 14.9338 0.506927 14.8682 0.532288 14.8074C0.557601 14.7467 0.595004 14.6916 0.641663 14.6453L0.643616 14.6433L6.94342 8.35425L7.29791 7.99976L6.94342 7.64624L0.643616 1.3562C0.549119 1.26167 0.496155 1.13342 0.496155 0.999756C0.496204 0.866129 0.549124 0.737802 0.643616 0.643311C0.738139 0.548852 0.866426 0.49585 1.00006 0.49585C1.10027 0.495862 1.19718 0.526042 1.27936 0.580811L1.35651 0.643311L7.64655 6.94312L8.00006 7.29761L8.35358 6.94312L14.6436 0.643311C14.7381 0.548851 14.8664 0.49585 15.0001 0.49585Z" fill="black" stroke="#334155"/>
</svg>
